<?xml version="1.0" standalone="no"?><!DOCTYPE svg PUBLIC "-//W3C//DTD SVG 1.1//EN" "http://www.w3.org/Graphics/SVG/1.1/DTD/svg11.dtd"><svg t="1703313627296" class="icon" viewBox="0 0 1025 1024" version="1.1" xmlns="http://www.w3.org/2000/svg" p-id="4245" xmlns:xlink="http://www.w3.org/1999/xlink" width="128.125" height="128"><path d="M212.487066 513.32608l300.032 0L512.519066 640l42.66496 0 0-126.67904 256 0c71.296 0 85.33504 42.41408 85.33504 126.67904l41.30304 0 0-85.33504c5.5296-41.6-23.71584-79.81056-65.31584-85.34016-6.656-0.88576-13.40416-0.88064-20.06016 0.00512l-297.30304 0L555.143066 384l-42.66496 0 0 85.33504-325.59104 0.512c-57.15968 2.8672-101.8112 50.42688-101.07904 107.648L85.808026 640l41.344 0C127.152026 574.80704 122.887066 513.36704 212.487066 513.32608z" p-id="4246" fill="#cdcdcd"></path><path d="M391.943066 298.66496 674.224026 298.66496c29.21472-1.60768 51.65056-26.50112 50.21696-55.72608L724.440986 98.38592c1.42848-29.22496-21.00736-54.1184-50.21696-55.72608L391.943066 42.65984c-29.18912 1.62816-51.58912 26.5216-50.13504 55.72608L341.808026 242.944C340.353946 272.14336 362.748826 297.0368 391.943066 298.66496z" p-id="4247" fill="#cdcdcd"></path><path d="M218.328986 725.33504 38.576026 725.33504c-24.92416 4.95616-41.64608 28.50816-38.10304 53.67296l0 148.64896c-3.52256 25.15968 13.18912 48.69632 38.10304 53.67296l179.75296 0c24.91904-4.97664 41.64096-28.50816 38.144-53.67296L256.472986 779.008C259.995546 753.83808 243.258266 730.2912 218.328986 725.33504z" p-id="4248" fill="#cdcdcd"></path><path d="M602.375066 725.33504 422.576026 725.33504c-24.93952 4.93568-41.66656 28.50304-38.10304 53.67296l0 148.64896c-3.52256 25.15968 13.18912 48.69632 38.10304 53.67296l179.79904 0c24.91392-4.97664 41.62048-28.51328 38.10304-53.67296L640.478106 779.008C644.016026 753.8432 627.299226 730.2912 602.375066 725.33504z" p-id="4249" fill="#cdcdcd"></path><path d="M1024.472986 779.008c3.54304-25.17504-13.19936-48.73728-38.144-53.67296L806.576026 725.33504c-24.92416 4.95616-41.64608 28.50816-38.10304 53.67296l0 148.64896c-3.52256 25.15968 13.18912 48.69632 38.10304 53.67296l179.75296 0c24.92928-4.95616 41.66144-28.50304 38.144-53.67296L1024.472986 779.008z" p-id="4250" fill="#cdcdcd"></path></svg>